<svg width="24" height="22" viewBox="0 0 24 22" fill="none" xmlns="http://www.w3.org/2000/svg">
<path d="M5.88889 7.11111H18.1111M5.88889 12H18.1111M23 20.5556L18.937 18.524C18.629 18.37 18.475 18.293 18.3135 18.2387C18.1703 18.1906 18.0227 18.1557 17.873 18.1347C17.7044 18.1111 17.5321 18.1111 17.1878 18.1111H4.91111C3.54209 18.1111 2.85758 18.1111 2.33469 17.8447C1.87473 17.6104 1.50078 17.2364 1.26643 16.7764C1 16.2536 1 15.569 1 14.2V4.91111C1 3.54209 1 2.85758 1.26643 2.33469C1.50078 1.87473 1.87473 1.50078 2.33469 1.26643C2.85758 1 3.5421 1 4.91111 1H19.0889C20.4579 1 21.1425 1 21.6653 1.26643C22.1253 1.50078 22.4993 1.87473 22.7336 2.33469C23 2.85758 23 3.5421 23 4.91111V20.5556Z" stroke="black" stroke-width="2" stroke-linecap="round" stroke-linejoin="round"/>
</svg>
