<svg width="9" height="13" viewBox="0 0 9 13" fill="none" xmlns="http://www.w3.org/2000/svg">
<path d="M0.719143 12.3994L0.719039 12.3992L0.707941 12.4071C0.672316 12.4326 0.64735 12.4503 0.62386 12.4656C0.603129 12.4792 0.588938 12.4872 0.578859 12.4922C0.578434 12.4916 0.578002 12.4909 0.577563 12.4903C0.545377 12.4404 0.5 12.3225 0.5 12.119C0.5 11.9522 0.528753 11.8579 0.558268 11.7999C0.586298 11.7447 0.630956 11.6908 0.715613 11.6294L7.73088 6.94519L7.95323 6.79672V6.52936V6.42169V6.15308L7.72927 6.00479L0.714921 1.36033C0.630713 1.29913 0.586222 1.24534 0.558268 1.19036C0.528753 1.13232 0.5 1.03799 0.5 0.871261C0.5 0.682971 0.544664 0.569801 0.57816 0.519957C0.584218 0.510944 0.589306 0.50482 0.59305 0.500825C0.593478 0.500902 0.593799 0.500969 0.594026 0.501018C0.595267 0.501285 0.597952 0.501935 0.603406 0.504329C0.617412 0.510478 0.643089 0.524813 0.698657 0.566469L0.706445 0.572307L0.714454 0.577838L8.04366 5.63888L8.0436 5.63896L8.05208 5.64457C8.29891 5.8077 8.5 6.10228 8.5 6.54895C8.5 6.99295 8.30241 7.27803 8.04929 7.45962L0.719143 12.3994Z" fill="#444040" stroke="black"/>
</svg>
