<svg width="33" height="29" viewBox="0 0 33 29" fill="none" xmlns="http://www.w3.org/2000/svg">
<path d="M1.89453 21.2686V27.8862C1.89453 28.2727 2.20787 28.586 2.59434 28.586H15.273C15.1632 28.352 15.1016 28.0911 15.1016 27.816V21.2686H1.89453Z" fill="#FAFAFA"/>
<path d="M1.04971 20.1835H1.89585H15.1028V19.5805V18.7261C15.1028 18.7181 15.103 18.7101 15.1031 18.7021C15.1069 18.1696 15.2361 17.6664 15.4627 17.2207C15.5605 17.0284 15.6764 16.8467 15.8082 16.6782C15.9649 16.4777 16.144 16.2956 16.3416 16.1356C16.9141 15.672 17.6426 15.3939 18.435 15.3939H19.2242V13.8783C19.2242 12.7291 18.2925 11.7974 17.1432 11.7974H15.2604C14.8929 11.7974 14.5736 12.0503 14.4896 12.4081L13.6144 16.1356L13.4869 16.6782L13.3967 17.0623C13.3841 17.1161 13.3693 17.169 13.3523 17.2207H12.772C12.7656 17.0392 12.7471 16.858 12.7168 16.6782C12.7116 16.647 12.7061 16.6159 12.7002 16.5849L12.5838 16.1356L11.899 13.4923L12.4455 12.2861C12.5493 12.0571 12.3818 11.7974 12.1304 11.7974H10.9574C10.7059 11.7974 10.5385 12.0571 10.6422 12.2861L11.1888 13.4923L10.478 16.1356L10.37 16.5372C10.3607 16.584 10.3523 16.6311 10.3446 16.6782C10.3149 16.858 10.297 17.0392 10.2911 17.2207H9.7355C9.71856 17.1689 9.70369 17.1161 9.69102 17.0623L9.60082 16.6782L9.47342 16.1356L8.59821 12.4082C8.5142 12.0504 8.19498 11.7975 7.8274 11.7975H5.94465C4.79535 11.7975 3.86367 12.7292 3.86367 13.8784V16.1358V16.6783V17.2209H1.04971C0.46999 17.2209 0 17.6909 0 18.2706V19.134C0 19.7136 0.46999 20.1835 1.04971 20.1835Z" fill="#FAFAFA"/>
<path d="M11.5454 10.6727C14.1248 10.6727 16.2158 8.5817 16.2158 6.00231V1.03813C16.2158 0.394627 15.6364 -0.0936983 15.0022 0.0152615C13.6279 0.251341 10.494 0.876723 8.54418 1.27015C7.57313 1.46607 6.875 2.31937 6.875 3.30998V6.00235C6.87503 8.58173 8.96606 10.6727 11.5454 10.6727Z" fill="#FAFAFA"/>
<path d="M18.4349 16.4436C18.0729 16.4436 17.7309 16.5282 17.4268 16.6781C17.1565 16.8114 16.9167 16.9966 16.7199 17.2207C16.3718 17.617 16.1588 18.1346 16.1529 18.7021C16.1529 18.7101 16.1523 18.718 16.1523 18.7261V19.5805V20.1835V20.726V21.2686V27.816C16.1523 28.2413 16.4971 28.586 16.9223 28.586H28.6121H32.2299C32.6552 28.586 32.9999 28.2413 32.9999 27.816V18.7261C32.9999 17.6216 32.2154 16.7004 31.1731 16.4892C31.0259 16.4594 30.8735 16.4436 30.7175 16.4436H19.2241H18.4349Z" fill="#FAFAFA"/>
<path d="M24.5757 15.2102C27.4049 15.2102 29.6983 12.9167 29.6983 10.0876V7.13457C29.6983 6.04805 28.9325 5.11213 27.8676 4.89725C25.7288 4.46575 22.2917 3.77984 20.7843 3.52088C20.7186 3.50957 20.6534 3.50415 20.5892 3.50415C19.9743 3.50415 19.4531 4.00367 19.4531 4.64281V10.0876C19.4532 12.9167 21.7466 15.2102 24.5757 15.2102Z" fill="#FAFAFA"/>
</svg>
