<svg width="21" height="21" viewBox="0 0 21 21" fill="none" xmlns="http://www.w3.org/2000/svg">
<path d="M1.75 18.375C1.74988 17.2429 2.02433 16.1277 2.54982 15.125C3.07531 14.1222 3.83616 13.2619 4.76713 12.6178C5.69811 11.9736 6.77141 11.5649 7.89502 11.4266C9.01863 11.2884 10.159 11.4247 11.2184 11.8239M18.7058 14.5477C19.0543 14.1992 19.2501 13.7264 19.2501 13.2335C19.2501 12.7406 19.0543 12.2678 18.7058 11.9192C18.3572 11.5707 17.8844 11.3749 17.3915 11.3749C16.8986 11.3749 16.4258 11.5707 16.0773 11.9192L12.5685 15.4297C12.3605 15.6377 12.2082 15.8947 12.1257 16.177L11.3934 18.6882C11.3714 18.7635 11.3701 18.8434 11.3896 18.9193C11.409 18.9953 11.4486 19.0646 11.504 19.1201C11.5595 19.1756 11.6288 19.2151 11.7048 19.2346C11.7808 19.254 11.8606 19.2527 11.9359 19.2307L14.4471 18.4984C14.7295 18.4159 14.9865 18.2637 15.1944 18.0556L18.7058 14.5477ZM13.125 7C13.125 9.41625 11.1662 11.375 8.75 11.375C6.33375 11.375 4.375 9.41625 4.375 7C4.375 4.58375 6.33375 2.625 8.75 2.625C11.1662 2.625 13.125 4.58375 13.125 7Z" stroke="#FAFAFA" stroke-width="2" stroke-linecap="round" stroke-linejoin="round"/>
</svg>
