<svg width="13" height="16" viewBox="0 0 13 16" fill="none" xmlns="http://www.w3.org/2000/svg">
<path d="M12.5573 8.5747H11.0387C10.8668 6.82435 9.6921 5.30319 8.00944 4.70933C7.80367 4.63902 7.57446 4.72758 7.47288 4.92291L6.54819 6.72798L5.61048 4.89427C5.51149 4.70151 5.28751 4.60775 5.08174 4.67548C3.3444 5.24593 2.13582 6.7775 1.96389 8.56693H0.440186C0.197953 8.56693 0 8.76226 0 9.00711V14.4458C0 14.688 0.195334 14.8859 0.440186 14.8859H1.09396V15.3782C1.09396 15.6205 1.28933 15.8184 1.53414 15.8184C1.77899 15.8184 1.97433 15.623 1.97433 15.3782V14.8859H11.0257V15.3782C11.0257 15.6205 11.221 15.8184 11.4659 15.8184C11.7081 15.8184 11.906 15.623 11.906 15.3782V14.8859H12.5598C12.802 14.8859 13 14.6906 13 14.4458V9.01231C12.9975 8.77008 12.7969 8.5747 12.5573 8.5747ZM5.00623 5.64961L6.1549 7.89748C6.23045 8.04334 6.3815 8.13714 6.54823 8.13714C6.71234 8.13714 6.86601 8.04338 6.94156 7.89748L8.07202 5.6835C9.21807 6.22526 10.0047 7.32188 10.1558 8.57212H2.84434C2.99802 7.28799 3.81851 6.17578 5.00623 5.64961ZM12.1197 14.0029H12.1145V14.0081H0.88299V13.0027H1.48209C1.72432 13.0027 1.92227 12.8073 1.92227 12.5625C1.92227 12.3202 1.7269 12.1223 1.48209 12.1223H0.88299V11.3409H2.51875C2.76098 11.3409 2.95893 11.1455 2.95893 10.9007C2.95893 10.6585 2.7636 10.4605 2.51875 10.4605H0.88299V9.45511H12.1197V14.0029Z" fill="#0A0A0B"/>
<path d="M6.49779 0C5.41943 0 4.54688 0.875173 4.54688 1.95092C4.54688 3.02666 5.41947 3.90446 6.49779 3.90446C7.57612 3.90446 8.44871 3.02928 8.44871 1.95354C8.44871 0.877793 7.57612 0 6.49779 0ZM6.49779 3.02409C5.90651 3.02409 5.42467 2.5422 5.42467 1.95096C5.42467 1.35972 5.90655 0.877833 6.49779 0.877833C7.08903 0.877833 7.57092 1.35972 7.57092 1.95096C7.57092 2.5422 7.08903 3.02409 6.49779 3.02409Z" fill="#0A0A0B"/>
</svg>
